<svg width="50" height="50" viewBox="0 0 50 50" fill="none" xmlns="http://www.w3.org/2000/svg">
<g clip-path="url(#clip0_1949_2049)">
<mask id="mask0_1949_2049" style="mask-type:alpha" maskUnits="userSpaceOnUse" x="13" y="1" width="42" height="48">
<path d="M19.6445 35.174L22.1934 42.4565L23.4987 45.523C23.8612 46.3744 24.6018 47.0066 25.4995 47.2311L30.4635 48.4721C30.9584 48.5958 31.477 48.5892 31.9687 48.4529L51.476 43.0432C52.7321 42.6949 53.6111 41.5643 53.6391 40.2612L54.0522 21.0121C54.0587 20.708 54.0182 20.4046 53.932 20.1128L49.9367 6.57772C49.6389 5.56891 48.827 4.79467 47.8052 4.54516L34.4318 1.27961C33.6966 1.10009 32.9206 1.2097 32.2639 1.5858L23.6576 6.51481C23.1921 6.78142 22.808 7.1698 22.5466 7.63824L14.2523 22.5017C13.7542 23.3943 13.7532 24.481 14.2495 25.3745L19.4387 34.7156C19.5202 34.8623 19.589 35.0156 19.6445 35.174Z" fill="#8DCD43"/>
</mask>
<g mask="url(#mask0_1949_2049)">
<circle cx="29.1247" cy="24.8336" r="17.3108" stroke="#8DCD43" stroke-width="2.78"/>
</g>
<path d="M28.4355 14.3203V24.073C28.4355 25.7038 29.7576 27.0258 31.3883 27.0258H35.9898" stroke="#8DCD43" stroke-width="2.78" stroke-linecap="round"/>
<mask id="path-4-inside-1_1949_2049" fill="white">
<path fill-rule="evenodd" clip-rule="evenodd" d="M10.8361 22.3846C11.3635 23.2982 11.3635 24.4238 10.8361 25.3374L2.4 39.9491C1.26348 41.9176 2.68414 44.3783 4.95719 44.3783H20.4124C22.6854 44.3783 24.1061 41.9176 22.9695 39.9491L14.5335 25.3374C14.006 24.4238 14.006 23.2982 14.5335 22.3846L22.9695 7.77293C24.1061 5.8044 22.6854 3.34375 20.4124 3.34375H4.95719C2.68414 3.34375 1.26348 5.8044 2.4 7.77292L10.8361 22.3846Z"/>
</mask>
<path d="M14.5335 25.3374L16.941 23.9474L14.5335 25.3374ZM14.5335 22.3846L16.941 23.7746L14.5335 22.3846ZM2.4 39.9491L-0.00754786 38.5591L2.4 39.9491ZM4.80755 41.3391L13.2436 26.7274L8.42852 23.9474L-0.00754786 38.5591L4.80755 41.3391ZM20.4124 41.5983H4.95719V47.1583H20.4124V41.5983ZM12.1259 26.7274L20.562 41.3391L25.3771 38.5591L16.941 23.9474L12.1259 26.7274ZM16.941 23.7746L25.3771 9.16293L20.562 6.38293L12.1259 20.9946L16.941 23.7746ZM20.4124 0.56375H4.95719V6.12375H20.4124V0.56375ZM-0.00754786 9.16292L8.42852 23.7746L13.2436 20.9946L4.80755 6.38292L-0.00754786 9.16292ZM4.95719 0.56375C0.544094 0.56375 -2.2141 5.34107 -0.00754786 9.16292L4.80755 6.38292C4.78012 6.33541 4.77981 6.3111 4.78002 6.29903C4.78038 6.27846 4.78682 6.24606 4.80755 6.21014C4.82829 6.17423 4.85313 6.15245 4.87076 6.14185C4.88111 6.13563 4.90232 6.12375 4.95719 6.12375V0.56375ZM25.3771 9.16293C27.5836 5.34108 24.8255 0.56375 20.4124 0.56375V6.12375C20.4672 6.12375 20.4884 6.13563 20.4988 6.14185C20.5164 6.15245 20.5413 6.17423 20.562 6.21014C20.5827 6.24606 20.5892 6.27846 20.5895 6.29903C20.5897 6.3111 20.5894 6.33541 20.562 6.38293L25.3771 9.16293ZM16.941 23.9474C16.9102 23.894 16.9102 23.8281 16.941 23.7746L12.1259 20.9946C11.1019 22.7684 11.1019 24.9537 12.1259 26.7274L16.941 23.9474ZM20.4124 47.1583C24.8255 47.1583 27.5836 42.381 25.3771 38.5591L20.562 41.3391C20.5894 41.3866 20.5897 41.4109 20.5895 41.423C20.5892 41.4436 20.5827 41.476 20.562 41.5119C20.5413 41.5478 20.5164 41.5696 20.4988 41.5802C20.4884 41.5864 20.4672 41.5983 20.4124 41.5983V47.1583ZM13.2436 26.7274C14.2677 24.9537 14.2677 22.7684 13.2436 20.9946L8.42852 23.7746C8.45939 23.8281 8.45939 23.894 8.42852 23.9474L13.2436 26.7274ZM-0.00754786 38.5591C-2.2141 42.381 0.544094 47.1583 4.95719 47.1583V41.5983C4.90232 41.5983 4.88111 41.5864 4.87076 41.5802C4.85313 41.5696 4.82829 41.5478 4.80755 41.5119C4.78682 41.476 4.78038 41.4436 4.78002 41.423C4.77981 41.4109 4.78012 41.3866 4.80755 41.3391L-0.00754786 38.5591Z" fill="#8DCD43" mask="url(#path-4-inside-1_1949_2049)"/>
<path d="M10.2354 34.7629C8.97851 34.3059 6.67315 35.6329 5.43546 36.2756L2.88086 40.3324V42.3317L4.1665 43.6883L21.8741 43.2599L22.9452 41.9033L22.3025 40.3324L18.5182 33.9062C17.4948 34.1918 15.1624 34.9201 14.0199 35.5485C12.5919 36.334 11.8065 35.3342 10.2354 34.7629Z" fill="#8DCD43"/>
<path d="M12.1744 15.6392C11.1024 15.3267 9.08544 15.9556 8.21094 16.3091C9.21584 18.3745 11.3261 22.684 11.728 23.3985C12.13 24.1131 13.0864 23.6963 13.5144 23.3985L17.3103 16.3091H15.524C14.6866 16.3091 13.5144 16.03 12.1744 15.6392Z" fill="#8DCD43"/>
</g>
<defs>
<clipPath id="clip0_1949_2049">
<rect width="50" height="50" fill="white"/>
</clipPath>
</defs>
</svg>
