<svg width="50" height="50" viewBox="0 0 50 50" fill="none" xmlns="http://www.w3.org/2000/svg">
<line x1="1.38888" y1="35.7344" x2="1.38888" y2="49.7344" stroke="#8DCD43" stroke-width="2.77775"/>
<line x1="11.3889" y1="30.7344" x2="11.3889" y2="49.7344" stroke="#8DCD43" stroke-width="2.77775"/>
<line x1="20.3889" y1="24.7344" x2="20.3889" y2="49.7344" stroke="#8DCD43" stroke-width="2.77775"/>
<path d="M11.1457 23.4221C8.00867 22.397 5.39258 19.7275 5.39258 16.4272V10.6413C5.39258 10.2818 5.68881 9.98939 6.0481 10.0003C16.5215 10.3181 20.1099 18.2384 20.5985 22.2705C20.6008 22.2894 20.6168 22.3028 20.6359 22.3028C20.655 22.3028 20.671 22.2894 20.6733 22.2705C21.162 18.2384 24.7503 10.3181 35.2237 10.0003C35.583 9.98939 35.8793 10.2818 35.8793 10.6413V16.4272C35.8793 19.7275 33.2632 22.397 30.1262 23.4221C25.8153 24.8308 21.3688 27.7086 20.7439 32.9694C20.7396 33.0052 20.7094 33.0328 20.6734 33.0328C20.6596 33.0328 20.6468 33.0289 20.6359 33.0221C20.6251 33.0289 20.6122 33.0328 20.5985 33.0328C20.5625 33.0328 20.5322 33.0052 20.528 32.9694C19.903 27.7086 15.4565 24.8308 11.1457 23.4221Z" fill="#8DCD43"/>
<path d="M35.26 50H29.7C29.5895 50 29.5 49.9105 29.5 49.8V37.2C29.5 37.0895 29.5895 37 29.7 37H38.3C38.4105 37 38.5 37.0895 38.5 37.2L38.5 49.8C38.5 49.9105 38.4105 50 38.3 50H35.26Z" fill="#8DCD43"/>
<path d="M33.8289 27.2829C33.9067 27.1543 34.0933 27.1543 34.1711 27.2829L43.3427 42.4465C43.4233 42.5798 43.3273 42.75 43.1716 42.75H24.8284C24.6726 42.75 24.5767 42.5798 24.6573 42.4465L33.8289 27.2829Z" fill="#8DCD43"/>
</svg>
